# xmcd
#
# Track frame offsets:
# 150
# 13597
# 22607
# 37215
# 51825
# 61712
# 74287
# 89132
# 102967
# 113965
# 124445
# 132980
#
# Disc length: 1963 seconds
#
#
# Revision: 5
# Processed by: cddbd v1.5.1PL2 Copyright (c) Steve Scherf et al.
# Submitted via: FreeRIP 2.945 
#
DISCID=a707a90c
DTITLE=Various Artist - Schlagerrückblick 50er Jahre
DYEAR=1900
DGENRE=Oldies
TTITLE0=Hans-Arno Simon - Anneliese
TTITLE1=Barbara Kist - Was kann schöner sein
TTITLE2=Rene Carol - Der Südwind, der weht
TTITLE3=Hansen--Quartett - Wenn ich dich verliere
TTITLE4=Conny - I love you Baby
TTITLE5=Ralf Bendix - Wo meine Sonne scheint
TTITLE6=Eddie Constantine - Schenk deiner Frau doch hin und wieder rote Rosen
TTITLE7=Angele Durand - Mélodie D'amour
TTITLE8=Chris Howland - Das hab' ich in Paris gelernt
TTITLE9=Will Brandes - Wunderbares Mädchen
TTITLE10=Alice Babs - Lollipop
TTITLE11=Wolfgang Sauer - Glaube mir
EXTD=
EXTT0=
EXTT1=
EXTT2=
EXTT3=
EXTT4=
EXTT5=
EXTT6=
EXTT7=
EXTT8=
EXTT9=
EXTT10=
EXTT11=
PLAYORDER=
